<svg id="Layer_1" data-name="Layer 1" xmlns="http://www.w3.org/2000/svg" viewBox="0 0 707.26 707.26"><defs><style>.cls-1{fill:#fbb040;}.cls-2{fill:#fbb15f;}.cls-3,.cls-8{fill:#f79440;}.cls-4{fill:#f9b5b2;}.cls-5{fill:#bcbec0;}.cls-6{fill:#dcb49a;}.cls-7{fill:#231f20;}.cls-8{font-size:43.07px;font-family:UDDigiKyokashoNP-B, UD Digi Kyokasho NP-B;}</style></defs><rect class="cls-1" x="523.75" y="158.58" width="57.51" height="685.35" transform="translate(1146.35 283.67) rotate(135)"/><rect class="cls-2" x="442.42" y="239.91" width="57.51" height="685.35" transform="translate(1065.02 480.02) rotate(135)"/><rect class="cls-3" x="483.08" y="199.24" width="57.51" height="685.35" transform="translate(1105.69 381.85) rotate(135)"/><path class="cls-4" d="M150.52,220.55H323a0,0,0,0,1,0,0v72.76a19.87,19.87,0,0,1-19.87,19.87H170.38a19.87,19.87,0,0,1-19.87-19.87V220.55a0,0,0,0,1,0,0Z" transform="translate(441.64 106.79) rotate(135)"/><rect class="cls-5" x="189.45" y="294.22" width="186.19" height="36.8" transform="translate(552.12 152.55) rotate(135)"/><polygon class="cls-6" points="706.48 706.48 540.38 662.38 662.38 540.38 706.48 706.48"/><polygon class="cls-7" points="707.26 707.26 672.39 698 698 672.39 707.26 707.26"/><text class="cls-8" transform="matrix(0.71, 0.71, -0.71, 0.71, 184.15, 131.28)">CYDEAP</text></svg>