<?xml version="1.0" encoding="UTF-8"?>
<svg id="Layer_1" data-name="Layer 1" xmlns="http://www.w3.org/2000/svg" viewBox="0 0 500 500">
  <defs>
    <style>
      .cls-1 {
        fill: #dcb49a;
      }

      .cls-2 {
        fill: #fbb040;
      }

      .cls-3 {
        fill: #f9b5b2;
      }

      .cls-4 {
        fill: #ef4136;
      }

      .cls-5 {
        fill: #fbb15f;
      }

      .cls-6 {
        fill: none;
        stroke: #ef4136;
        stroke-miterlimit: 10;
        stroke-width: 46px;
      }

      .cls-7 {
        fill: #bcbec0;
      }

      .cls-8 {
        fill: #f79440;
      }
    </style>
  </defs>
  <rect class="cls-2" x="212.07" y="55.06" width="27.06" height="322.53" transform="translate(219.04 -96.17) rotate(45)"/>
  <rect class="cls-5" x="250.35" y="93.33" width="27.06" height="322.53" transform="translate(257.32 -112.02) rotate(45)"/>
  <rect class="cls-8" x="231.21" y="74.2" width="27.06" height="322.53" transform="translate(238.18 -104.09) rotate(45)"/>
  <path class="cls-3" d="m353.46,84.22h41.46c10.97,0,19.87,8.9,19.87,19.87v23.72h-81.19v-23.72c0-10.97,8.9-19.87,19.87-19.87Z" transform="translate(184.56 -233.54) rotate(45)"/>
  <rect class="cls-7" x="308.84" y="118.89" width="87.62" height="17.32" transform="translate(193.48 -212) rotate(45)"/>
  <polygon class="cls-1" points="81.95 398.25 160.12 377.49 102.71 320.08 81.95 398.25"/>
  <circle class="cls-6" cx="235.46" cy="235.46" r="212.46"/>
  <rect class="cls-4" x="213.48" y="23.71" width="43.97" height="424.02" transform="translate(-97.71 235.54) rotate(-45)"/>
</svg>