<svg id="Layer_1" data-name="Layer 1" xmlns="http://www.w3.org/2000/svg" viewBox="0 0 468.18 159.98"><defs><style>.cls-1{fill:#faaf40;}.cls-2{fill:#fab05f;}.cls-3{fill:#f6933f;}.cls-4{fill:#f8b4b1;}.cls-5{fill:#bbbdbf;}.cls-6{fill:#dbb399;}.cls-7{font-size:50.22px;fill:#b3b3b3;}.cls-10,.cls-7{font-family:ArialRoundedMTBold, Arial Rounded MT Bold;}.cls-8{letter-spacing:-0.01em;}.cls-9{letter-spacing:0em;}.cls-10{font-size:10.13px;}.cls-11{letter-spacing:-0.03em;}.cls-12{letter-spacing:0em;}</style></defs><polygon class="cls-1" points="103.48 92.39 96.86 99.15 18.05 18.66 24.66 11.91 103.48 92.39"/><polygon class="cls-2" points="90.25 105.9 83.64 112.66 4.82 32.17 11.44 25.41 90.25 105.9"/><polygon class="cls-3" points="96.86 99.15 90.25 105.9 11.44 25.41 18.05 18.66 96.86 99.15"/><path class="cls-4" d="M7.64,29.21,27.48,8.94l-.73-.74a13.85,13.85,0,0,0-19.84,0h0a14.6,14.6,0,0,0,0,20.26Z" transform="translate(-2.82 2.96)"/><polyline class="cls-5" points="4.04 32.97 8.27 37.29 29.68 15.43 25.45 11.1"/><polygon class="cls-6" points="110.57 119.9 83.56 112.57 103.39 92.31 110.57 119.9"/><polygon points="110.63 119.96 105.27 118.51 109.21 114.48 110.63 119.96"/><text class="cls-7" transform="translate(73.27 43.39)">CLEAR <tspan x="0" y="53" xml:space="preserve">     </tspan><tspan class="cls-8" x="62.77" y="53">Y</tspan><tspan class="cls-9" x="93.49" y="53">OUR DESKS</tspan></text><text class="cls-10" transform="translate(351.92 120.23)">E<tspan class="cls-11" x="6.76" y="0">X</tspan><tspan class="cls-12" x="12.61" y="0">CEPT FOR A PENCIL</tspan></text></svg>